HIERARCHY
ROOT Hips
{
	OFFSET 0 0 0
	CHANNELS 6 Xposition Yposition Zposition Zrotation Yrotation Xrotation
	JOINT Chest
	{
		OFFSET 0 33 0
		CHANNELS 3 Zrotation Yrotation Xrotation
		JOINT Chest2
		{
			OFFSET 0 23 0
			CHANNELS 3 Zrotation Yrotation Xrotation
			JOINT Neck
			{
				OFFSET 0 7 0
				CHANNELS 3 Zrotation Yrotation Xrotation
				JOINT Head
				{
					OFFSET 0 15 0
					CHANNELS 3 Zrotation Yrotation Xrotation
					End Site
					{
						OFFSET 0.0 0.0 0.0
					}
				}
			}
			JOINT LeftShoulder
			{
				OFFSET -14 0 0
				CHANNELS 3 Zrotation Yrotation Xrotation
				JOINT LeftElbow
				{
					OFFSET -25 0 0
					CHANNELS 3 Zrotation Yrotation Xrotation
					JOINT LeftWrist
					{
						OFFSET -23 0 0
						CHANNELS 3 Zrotation Yrotation Xrotation
						JOINT LeftHand
						{
							OFFSET -8.32 0 0
							CHANNELS 3 Zrotation Yrotation Xrotation
							End Site
							{
								OFFSET 0.0 0.0 0.0
							}
						}
					}
				}
			}
			JOINT RightShoulder
			{
				OFFSET 14 0 0
				CHANNELS 3 Zrotation Yrotation Xrotation
				JOINT RightElbow
				{
					OFFSET 25 0 0
					CHANNELS 3 Zrotation Yrotation Xrotation
					JOINT RightWrist
					{
						OFFSET 23 0 0
						CHANNELS 3 Zrotation Yrotation Xrotation
						JOINT RightHand
						{
							OFFSET 8.32 0 0
							CHANNELS 3 Zrotation Yrotation Xrotation
							End Site
							{
								OFFSET 0.0 0.0 0.0
							}
						}
					}
				}
			}
		}
	}
	JOINT HipLeft
	{
		OFFSET -9.52 0 0
		CHANNELS 3 Zrotation Yrotation Xrotation
		JOINT LeftKnee
		{
			OFFSET 0 -37.32 0
			CHANNELS 3 Zrotation Yrotation Xrotation
			JOINT LeftAnkle
			{
				OFFSET 0 -34.6 0
				CHANNELS 3 Zrotation Yrotation Xrotation
				JOINT LeftFoot
				{
					OFFSET 0 0 8.91
					CHANNELS 3 Zrotation Yrotation Xrotation
					End Site
					{
						OFFSET 0.0 0.0 0.0
					}
				}
			}
		}
	}
	JOINT RightHip
	{
		OFFSET 9.52 0 0
		CHANNELS 3 Zrotation Yrotation Xrotation
		JOINT RightKnee
		{
			OFFSET 0 -37.32 0
			CHANNELS 3 Zrotation Yrotation Xrotation
			JOINT RightAnkle
			{
				OFFSET 0 -34.6 0
				CHANNELS 3 Zrotation Yrotation Xrotation
				JOINT RightFoot
				{
					OFFSET 0 0 8.91
					CHANNELS 3 Zrotation Yrotation Xrotation
					End Site
					{
						OFFSET 0.0 0.0 0.0
					}
				}
			}
		}
	}
}

MOTION
Frames: 10
Frame Time: 0.033333
-13.7762 35.2451 233.303 178.167 -1.28788 -171.892 -0.132402 -0.0526108 1.44318 -2.03482 -0.00412447 4.43465 5.33608e-08 6.67011e-09 3.10601e-18 5.33608e-08 6.67011e-09 3.10601e-18 85.0496 4.02922 19.8188 -4.71256 18.506 89.1511 3.7777e-06 28.9073 9.73721e-07 0 0 0 -78.4353 13.561 -8.85241 9.09863e-06 -32.3796 -143.252 2.77712 13.0966 0.0843485 0 0 0 8.8534 -17.0163 -18.7231 5.81665 14.6459 1.94988 -180 -5.15232e-07 -31.0727 0 0 0 -13.5511 0.893468 -11.7881 5.81964 5.67149 45.8842 -180 -9.65103e-07 30.2919 0 0 0 
-13.5305 35.243 233.301 178.587 -1.27333 -171.991 0.0852893 -0.0489599 1.39512 -2.04351 0.00257582 4.40797 0 0 0 0 0 0 85.1767 3.71598 19.8882 -2.80586 18.9128 89.7685 -1.08256 25.7527 -0.562704 0 0 0 -78.3886 13.608 -8.73842 -6.06945e-06 -32.4345 -143.352 4.44415 11.2762 0.417055 0 1.70755e-06 0 10.0647 -16.7887 -18.5356 4.819 14.8169 1.11937 -180 9.24876e-08 -31.5473 0 0 0 -12.8681 1.50321 -11.9112 5.79218 5.4339 46.9684 -180 -1.83087e-06 31.5644 0 0 0 
-13.5272 35.2427 233.304 178.674 -1.24451 -172.089 -0.0292434 -0.0432433 1.36903 -1.86952 0.00471767 4.48501 0 0 0 0 0 0 85.1606 3.82547 19.9521 -1.91729 18.8114 87.2548 -1.85829e-06 26.5862 -4.39044e-07 0 0 0 -78.4924 13.4914 -8.32249 -1.10925e-05 -32.1505 -143.688 4.19987 11.7094 0.459693 1.27222e-14 -1.70755e-06 -8.53774e-07 10.3836 -16.7116 -18.4056 4.51482 14.8622 0.889903 -180 -4.25164e-07 -31.6553 0 0 0 -12.7415 2.0681 -12.0768 5.5325 5.01763 47.9192 -180 1.34186e-07 32.1794 0 0 0 
-13.5061 35.2412 233.302 178.751 -1.24928 -172.15 -0.121072 -0.0383775 1.33164 -1.85053 0.0152329 4.36401 0 0 0 0 0 0 85.4379 3.58817 19.9909 -1.85808 18.8772 87.6595 -1.74686e-06 26.4699 -7.4274e-06 0 0 0 -78.3825 13.6604 -6.86574 0 -32.0092 -144.884 2.86931 10.5833 0.302405 0 0 0 13.6099 -15.125 -20.6783 -1.61421 16.3077 3.47739 -180 9.25588e-08 -29.7211 1.58407e-15 1.06722e-07 1.70088e-06 -12.5799 2.38348 -12.6377 5.60062 4.85745 49.1892 -180 -1.49011e-06 32.6663 4.26887e-07 -3.18055e-15 8.53774e-07 
-13.5616 35.24 233.345 178.876 -1.24633 -172.281 -0.0284437 -0.041437 1.45069 -1.76125 0.00965765 4.4197 0 0 0 0 0 0 85.3137 3.74927 20.0208 -1.32582 18.6737 87.7896 0.744455 25.6467 0.38126 0 0 0 -78.5001 13.5189 -6.74151 -4.02762e-06 -32.014 -145.001 4.34006 10.0698 0.555621 0 0 0 13.6399 -15.114 -20.6408 -1.27724 16.1063 3.34095 -180 4.44104e-07 -30.0241 0 0 0 -12.4605 2.4675 -12.6434 5.72911 4.88641 49.6676 -180 1.52185e-06 33.0692 0 0 -5.33608e-08 
-13.5617 35.2402 233.346 178.961 -1.25672 -172.356 -0.0848178 -0.0376892 1.44024 -1.5927 0.00735191 4.49427 0 0 0 0 0 0 85.3855 3.613 20.0182 -1.46189 18.8922 87.8002 1.04543 25.7471 0.455751 0 0 0 -78.618 13.5021 -6.43372 9.09318e-06 -32.3254 -145.241 4.23422 9.87345 0.530013 0 0 0 13.7046 -15.1349 -20.5556 -1.12407 16.0871 3.28278 -180 5.85778e-07 -30.115 0 1.06722e-07 0 -12.3658 2.4753 -12.6562 5.7501 4.85972 49.9259 -180 -8.0914e-07 33.1638 0 0 0 
-13.6109 35.2459 233.373 179.077 -1.13657 -172.471 -0.0207295 -0.0388716 1.5063 -1.53456 0.00448682 4.56934 0 0 0 0 0 0 85.3435 3.57275 20.1398 -1.74724 19.1879 88.7177 1.42308e-06 26.088 -1.42308e-06 0 0 0 -78.6946 13.4666 -6.16542 -3.02903e-06 -32.2647 -145.59 5.30319 8.32999 0.633239 0 0 0 13.6813 -15.0193 -20.4967 -0.945455 15.9078 3.36974 -180 6.52331e-07 -30.1382 0 0 0 -12.2638 2.57669 -12.9311 5.8735 4.83494 50.6716 -180 1.87294e-06 33.5413 0 0 0 
-13.6281 35.2432 233.38 179.158 -1.14749 -172.548 -0.00434765 -0.0382316 1.52444 -1.5125 0.00610437 4.61003 0 0 0 0 0 0 85.2993 3.74331 20.1623 -1.57778 19.0076 88.7078 0.537825 25.6117 0.247782 0 0 0 -78.7771 13.3527 -5.66563 1.00057e-06 -31.4291 -145.965 2.85308 12.3688 0.566472 0 0 0 13.723 -15.0379 -20.434 -0.9104 15.8319 3.38503 -180 2.30612e-07 -30.126 0 0 0 -12.1803 2.67311 -12.9301 5.81912 4.75154 50.8959 -180 7.71291e-08 33.5066 0 0 0 
-13.7638 35.2509 233.446 179.138 -1.15663 -172.619 0.0535881 -0.04311 1.59887 -1.65298 0.00878576 4.63846 5.33609e-08 0 0 5.33609e-08 0 0 85.2056 3.92626 20.156 -1.35763 18.8714 88.7039 0.512015 24.9842 0.251372 0 0 0 -78.847 13.2571 -5.25521 -1.19612e-05 -31.0697 -146.271 3.19428 12.5911 0.751324 0 0 0 13.5051 -15.0577 -20.5105 -0.620368 15.6254 3.64164 -180 -8.102e-07 -30.0727 0 0 0 -12.3561 2.44861 -12.9204 6.05983 4.95398 50.8735 -180 -1.71952e-06 33.4427 0 0 0 
-13.8532 35.2529 233.491 179.174 -1.15227 -172.716 0.0887299 -0.0453535 1.63194 -1.63459 0.00352547 4.74559 0 0 0 0 0 0 85.2198 3.78355 20.1462 -1.65464 19.1756 88.6579 1.39277 25.4184 0.572115 0 0 0 -78.9806 13.1368 -5.05284 -1.99153e-06 -30.9736 -146.429 3.79006 11.902 0.876044 0 0 0 13.3666 -15.0822 -20.4851 -0.352861 15.4451 3.72192 -180 -5.78399e-07 -30.1176 0 0 0 -12.4187 2.39083 -12.8682 6.15214 5.01368 50.9656 -180 -9.8635e-07 33.5747 0 0 0 
